<svg xmlns="http://www.w3.org/2000/svg" version="1.1" viewBox="0 0 64 64" fill="#34d07b">
<filter id="f"><feGaussianBlur stdDeviation=".5"/></filter>
<linearGradient id="l" x1="0" x2="0" y1=".3" y2="1">
<stop offset="0" stop-color="#27ab5f"/><stop offset="1" stop-color="#249a56"/>
</linearGradient>
<path d="M41 2l1 14 14 1V60q0 2-2 2H10q-2 0-2-2V4q0-2 2-2"/>
<path fill="url(#l)" d="M10 3Q9 3 9 4v56q0 1 1 1h44q1 0 1-1V17H43q-2 0-2-2V3"/>
<path fill="#000" filter="url(#f)" opacity=".2" d="M40 3v12c0 2 1 3 3 3h12v-1L41 3Zm-8 19-15 8v17.5l5 2.5 5-2.5v-6L22 39v-6l10-5.5L42 33v6l-5 2.5v6l5 2.5 5-2.5V30Z"/>
<path fill="#fff" d="m32 20-15 8v17.5l5 2.5 5-2.5v-6L22 37v-6l10-5.5L42 31v6l-5 2.5v6l5 2.5 5-2.5V28Z"/>
<path d="M41 2c1 0 2 1 2 1L55 15s1 1 1 2H43q-2 0-2-2"/>
</svg>
